<svg xmlns="http://www.w3.org/2000/svg" class="sim-svg plaza-sim" viewBox="0 0 1000 600" preserveAspectRatio="xMidYMid slice" aria-hidden="true"><style>.svg-line{stroke:#bcbcbc;stroke-width:2;fill:none}.svg-line.thin{stroke-width:1}.svg-soft{stroke:#666;stroke-width:1.4;fill:none}.svg-fill{fill:#bcbcbc}.svg-route{stroke:#ddd;stroke-width:4;stroke-dasharray:10 15;fill:none}.map-blocks rect,.plaza-zones rect{fill:#202020;stroke:#777;stroke-width:1.5}.graph-line{stroke:#ccc;stroke-width:4;fill:none}.network-candidate{stroke:#777;stroke-width:2;stroke-dasharray:8 9}.network-final{stroke:#ddd;stroke-width:4}.svg-node,.request-node{fill:#bbb}.network-particle{fill:#ddd}.broadcast-waves circle{fill:none;stroke:#aaa;stroke-width:2}.response{fill:#444;stroke:#ccc;stroke-width:2}*{animation:none!important}</style>
      <defs>
        <pattern id="4-1-1-dots" width="12" height="12" patternUnits="userSpaceOnUse">
          <circle cx="2" cy="2" r="1.4" fill="rgba(255,255,255,.58)"></circle>
          <circle cx="8" cy="7" r=".8" fill="rgba(255,255,255,.25)"></circle>
        </pattern>
        <pattern id="4-1-1-fine" width="8" height="8" patternUnits="userSpaceOnUse">
          <circle cx="1.5" cy="1.5" r=".8" fill="rgba(255,255,255,.32)"></circle>
        </pattern>
        <filter id="4-1-1-glow" x="-50%" y="-50%" width="200%" height="200%">
          <feGaussianBlur stdDeviation="3" result="blur"></feGaussianBlur>
          <feMerge><feMergeNode in="blur"></feMergeNode><feMergeNode in="SourceGraphic"></feMergeNode></feMerge>
        </filter>
      </defs>
      
      <rect width="900" height="600" fill="#0c0c0c"></rect>
      <g opacity=".32"><path d="M0 100H900 M0 200H900 M0 300H900 M0 400H900 M0 500H900 M150 0V600 M300 0V600 M450 0V600 M600 0V600 M750 0V600" class="svg-soft thin"></path></g>
      <path d="M120 90 H720 Q785 90 785 155 V445 Q785 510 720 510 H120 Q55 510 55 445 V155 Q55 90 120 90 Z" fill="rgba(255,255,255,.02)" class="svg-line"></path>
      <circle cx="455" cy="295" r="115" fill="rgba(255,255,255,.025)" class="svg-line"></circle>
      <path d="M455 95 V495 M100 295 H790" class="svg-soft thin"></path>
      <g class="plaza-zones"><rect x="145" y="135" width="170" height="100" rx="20"></rect><rect x="595" y="130" width="135" height="115" rx="20"></rect><rect x="130" y="365" width="185" height="100" rx="20"></rect><rect x="585" y="355" width="155" height="115" rx="20"></rect></g>
      <g class="ped-nodes"><circle cx="140" cy="135" r="4" class="svg-fill" opacity=".4"></circle><circle cx="213" cy="232" r="4" class="svg-fill" opacity=".5"></circle><circle cx="286" cy="329" r="4" class="svg-fill" opacity=".6"></circle><circle cx="359" cy="426" r="4" class="svg-fill" opacity=".7"></circle><circle cx="432" cy="193" r="4" class="svg-fill" opacity=".8"></circle><circle cx="505" cy="290" r="4" class="svg-fill" opacity=".4"></circle><circle cx="578" cy="387" r="4" class="svg-fill" opacity=".5"></circle><circle cx="651" cy="154" r="4" class="svg-fill" opacity=".6"></circle><circle cx="724" cy="251" r="4" class="svg-fill" opacity=".7"></circle><circle cx="177" cy="348" r="4" class="svg-fill" opacity=".8"></circle><circle cx="250" cy="445" r="4" class="svg-fill" opacity=".4"></circle><circle cx="323" cy="212" r="4" class="svg-fill" opacity=".5"></circle><circle cx="396" cy="309" r="4" class="svg-fill" opacity=".6"></circle><circle cx="469" cy="406" r="4" class="svg-fill" opacity=".7"></circle><circle cx="542" cy="173" r="4" class="svg-fill" opacity=".8"></circle><circle cx="615" cy="270" r="4" class="svg-fill" opacity=".4"></circle><circle cx="688" cy="367" r="4" class="svg-fill" opacity=".5"></circle><circle cx="141" cy="464" r="4" class="svg-fill" opacity=".6"></circle></g>
      
    
    </svg>