<svg xmlns="http://www.w3.org/2000/svg" class="sim-svg graph-sim" viewBox="0 0 1000 600" preserveAspectRatio="xMidYMid slice" aria-hidden="true"><style>.svg-line{stroke:#bcbcbc;stroke-width:2;fill:none}.svg-line.thin{stroke-width:1}.svg-soft{stroke:#666;stroke-width:1.4;fill:none}.svg-fill{fill:#bcbcbc}.svg-route{stroke:#ddd;stroke-width:4;stroke-dasharray:10 15;fill:none}.map-blocks rect,.plaza-zones rect{fill:#202020;stroke:#777;stroke-width:1.5}.graph-line{stroke:#ccc;stroke-width:4;fill:none}.network-candidate{stroke:#777;stroke-width:2;stroke-dasharray:8 9}.network-final{stroke:#ddd;stroke-width:4}.svg-node,.request-node{fill:#bbb}.network-particle{fill:#ddd}.broadcast-waves circle{fill:none;stroke:#aaa;stroke-width:2}.response{fill:#444;stroke:#ccc;stroke-width:2}*{animation:none!important}</style>
      <defs>
        <pattern id="4-1-2-dots" width="12" height="12" patternUnits="userSpaceOnUse">
          <circle cx="2" cy="2" r="1.4" fill="rgba(255,255,255,.58)"></circle>
          <circle cx="8" cy="7" r=".8" fill="rgba(255,255,255,.25)"></circle>
        </pattern>
        <pattern id="4-1-2-fine" width="8" height="8" patternUnits="userSpaceOnUse">
          <circle cx="1.5" cy="1.5" r=".8" fill="rgba(255,255,255,.32)"></circle>
        </pattern>
        <filter id="4-1-2-glow" x="-50%" y="-50%" width="200%" height="200%">
          <feGaussianBlur stdDeviation="3" result="blur"></feGaussianBlur>
          <feMerge><feMergeNode in="blur"></feMergeNode><feMergeNode in="SourceGraphic"></feMergeNode></feMerge>
        </filter>
      </defs>
      
      <rect width="700" height="360" fill="#0e0e0e"></rect>
      <g opacity=".32"><path d="M60 60H650 M60 140H650 M60 220H650 M60 300H650 M160 40V310 M300 40V310 M440 40V310 M580 40V310" class="svg-soft thin"></path></g>
      <g opacity="1">
        <path d="M60 270 C150 240 190 205 260 190 S380 100 450 118 S555 72 650 62" class="graph-line graph-ghost" fill="none"></path>
        <path d="M60 248 C150 232 200 225 260 215 S380 208 450 220 S560 210 650 205" class="graph-line supply graph-ghost" fill="none"></path>
        <path pathLength="1" d="M60 270 C150 240 190 205 260 190 S380 100 450 118 S555 72 650 62" class="graph-line demand graph-draw" fill="none"></path>
        <path pathLength="1" d="M60 248 C150 232 200 225 260 215 S380 208 450 220 S560 210 650 205" class="graph-line supply graph-draw delay" fill="none"></path>
        <path d="M450 118 V220" class="svg-line thin" stroke-dasharray="6 8"></path>
        <circle cx="450" cy="118" r="7" class="svg-fill"></circle><circle cx="450" cy="220" r="7" class="svg-fill"></circle>
      </g>
      
      
    
    </svg>